# MagicaVoxel @ Ephtracy

# group
g Ground

# material
mtllib Ground.mtl
usemtl palette

# normals
vn -1 0 0
vn 1 0 0
vn 0 0 1
vn 0 0 -1
vn 0 -1 0
vn 0 1 0

# texcoords
vt 0.955078 0.5
vt 0.994141 0.5

# verts
v -8 1 7
v -8 1 6
v -8 1 -7
v -8 15 7
v -8 15 6
v -8 15 -7
v -7 0 7
v -7 0 6
v -7 0 -7
v -7 1 7
v -7 1 6
v -7 1 -7
v -7 2 8
v -7 2 7
v -7 2 -7
v -7 2 -8
v -7 4 8
v -7 4 7
v -7 5 8
v -7 5 7
v -7 14 8
v -7 14 7
v -7 14 -7
v -7 14 -8
v -7 15 7
v -7 15 6
v -7 15 -7
v -7 16 7
v -7 16 6
v -7 16 -7
v -6 1 8
v -6 1 7
v -6 1 -7
v -6 1 -8
v -6 2 8
v -6 2 7
v -6 2 -7
v -6 2 -8
v -6 14 8
v -6 14 7
v -6 14 -7
v -6 14 -8
v -6 15 8
v -6 15 7
v -6 15 -7
v -6 15 -8
v -5 4 8
v -5 4 7
v -5 5 8
v -5 5 7
v -3 3 8
v -3 3 7
v -3 4 8
v -3 4 7
v 0 1 8
v 0 1 7
v 0 2 8
v 0 2 7
v 1 2 8
v 1 2 7
v 1 4 8
v 1 4 7
v 2 4 8
v 2 4 7
v 2 10 8
v 2 10 7
v 2 12 8
v 2 12 7
v 2 15 8
v 2 15 7
v 3 11 8
v 3 11 7
v 3 12 8
v 3 12 7
v -6 3 8
v -6 3 7
v -6 4 8
v -6 4 7
v -4 2 8
v -4 2 7
v -4 3 8
v -4 3 7
v -1 1 8
v -1 1 7
v -1 2 8
v -1 2 7
v 0 3 8
v 0 3 7
v 0 5 8
v 0 5 7
v 1 5 8
v 1 5 7
v 1 15 8
v 1 15 7
v 6 1 8
v 6 1 7
v 6 1 -7
v 6 1 -8
v 6 2 8
v 6 2 7
v 6 2 -7
v 6 2 -8
v 6 14 8
v 6 14 7
v 6 14 -7
v 6 14 -8
v 6 15 8
v 6 15 7
v 6 15 -7
v 6 15 -8
v 7 0 7
v 7 0 6
v 7 0 -7
v 7 1 7
v 7 1 6
v 7 1 -7
v 7 2 8
v 7 2 7
v 7 2 -7
v 7 2 -8
v 7 10 8
v 7 10 7
v 7 11 8
v 7 11 7
v 7 14 8
v 7 14 7
v 7 14 -7
v 7 14 -8
v 7 15 7
v 7 15 6
v 7 15 -7
v 7 16 7
v 7 16 6
v 7 16 -7
v 8 1 7
v 8 1 6
v 8 1 -7
v 8 15 7
v 8 15 6
v 8 15 -7
v -7 2 8
v -7 4 8
v -7 5 8
v -7 14 8
v -6 1 8
v -6 2 8
v -6 3 8
v -6 4 8
v -6 14 8
v -6 15 8
v -5 4 8
v -5 5 8
v -4 2 8
v -4 3 8
v -3 3 8
v -3 4 8
v -1 1 8
v -1 2 8
v 0 1 8
v 0 2 8
v 0 3 8
v 0 5 8
v 1 2 8
v 1 4 8
v 1 5 8
v 1 15 8
v 2 4 8
v 2 10 8
v 2 12 8
v 2 15 8
v 3 11 8
v 3 12 8
v 6 1 8
v 6 2 8
v 6 14 8
v 6 15 8
v 7 2 8
v 7 10 8
v 7 11 8
v 7 14 8
v -8 1 7
v -8 15 7
v -7 0 7
v -7 1 7
v -7 2 7
v -7 4 7
v -7 5 7
v -7 14 7
v -7 15 7
v -7 16 7
v -6 1 7
v -6 2 7
v -6 3 7
v -6 4 7
v -6 14 7
v -6 15 7
v -5 4 7
v -5 5 7
v -4 2 7
v -4 3 7
v -3 3 7
v -3 4 7
v -1 1 7
v -1 2 7
v 0 1 7
v 0 2 7
v 0 3 7
v 0 5 7
v 1 2 7
v 1 4 7
v 1 5 7
v 1 15 7
v 2 4 7
v 2 10 7
v 2 12 7
v 2 15 7
v 3 11 7
v 3 12 7
v 6 1 7
v 6 2 7
v 6 14 7
v 6 15 7
v 7 0 7
v 7 1 7
v 7 2 7
v 7 10 7
v 7 11 7
v 7 14 7
v 7 15 7
v 7 16 7
v 8 1 7
v 8 15 7
v -8 1 -7
v -8 15 -7
v -7 0 -7
v -7 1 -7
v -7 2 -7
v -7 14 -7
v -7 15 -7
v -7 16 -7
v -6 1 -7
v -6 2 -7
v -6 14 -7
v -6 15 -7
v 6 1 -7
v 6 2 -7
v 6 14 -7
v 6 15 -7
v 7 0 -7
v 7 1 -7
v 7 2 -7
v 7 14 -7
v 7 15 -7
v 7 16 -7
v 8 1 -7
v 8 15 -7
v -7 2 -8
v -7 14 -8
v -6 1 -8
v -6 2 -8
v -6 14 -8
v -6 15 -8
v 6 1 -8
v 6 2 -8
v 6 14 -8
v 6 15 -8
v 7 2 -8
v 7 14 -8
v -7 0 7
v 7 0 7
v -7 0 6
v 7 0 6
v -7 0 -7
v 7 0 -7
v -6 1 8
v -1 1 8
v 0 1 8
v 6 1 8
v -8 1 7
v -7 1 7
v -6 1 7
v -1 1 7
v 0 1 7
v 6 1 7
v 7 1 7
v 8 1 7
v -8 1 6
v -7 1 6
v 7 1 6
v 8 1 6
v -8 1 -7
v -7 1 -7
v -6 1 -7
v 6 1 -7
v 7 1 -7
v 8 1 -7
v -6 1 -8
v 6 1 -8
v -7 2 8
v -6 2 8
v 6 2 8
v 7 2 8
v -7 2 7
v -6 2 7
v 6 2 7
v 7 2 7
v -7 2 -7
v -6 2 -7
v 6 2 -7
v 7 2 -7
v -7 2 -8
v -6 2 -8
v 6 2 -8
v 7 2 -8
v -3 3 8
v 0 3 8
v -3 3 7
v 0 3 7
v -5 4 8
v -3 4 8
v -5 4 7
v -3 4 7
v -7 5 8
v -5 5 8
v 0 5 8
v 1 5 8
v -7 5 7
v -5 5 7
v 0 5 7
v 1 5 7
v 3 11 8
v 7 11 8
v 3 11 7
v 7 11 7
v 2 12 8
v 3 12 8
v 2 12 7
v 3 12 7
v -4 2 8
v -1 2 8
v 0 2 8
v 1 2 8
v -4 2 7
v -1 2 7
v 0 2 7
v 1 2 7
v -6 3 8
v -4 3 8
v -6 3 7
v -4 3 7
v -7 4 8
v -6 4 8
v 1 4 8
v 2 4 8
v -7 4 7
v -6 4 7
v 1 4 7
v 2 4 7
v 2 10 8
v 7 10 8
v 2 10 7
v 7 10 7
v -7 14 8
v -6 14 8
v 6 14 8
v 7 14 8
v -7 14 7
v -6 14 7
v 6 14 7
v 7 14 7
v -7 14 -7
v -6 14 -7
v 6 14 -7
v 7 14 -7
v -7 14 -8
v -6 14 -8
v 6 14 -8
v 7 14 -8
v -6 15 8
v 1 15 8
v 2 15 8
v 6 15 8
v -8 15 7
v -7 15 7
v -6 15 7
v 1 15 7
v 2 15 7
v 6 15 7
v 7 15 7
v 8 15 7
v -8 15 6
v -7 15 6
v 7 15 6
v 8 15 6
v -8 15 -7
v -7 15 -7
v -6 15 -7
v 6 15 -7
v 7 15 -7
v 8 15 -7
v -6 15 -8
v 6 15 -8
v -7 16 7
v 7 16 7
v -7 16 6
v 7 16 6
v -7 16 -7
v 7 16 -7

# faces
f 4/1/1 2/1/1 1/1/1
f 5/2/1 3/2/1 2/2/1
f 5/1/1 2/1/1 4/1/1
f 6/2/1 3/2/1 5/2/1
f 10/1/1 8/1/1 7/1/1
f 11/2/1 9/2/1 8/2/1
f 11/1/1 8/1/1 10/1/1
f 12/2/1 9/2/1 11/2/1
f 17/2/1 14/2/1 13/2/1
f 18/2/1 14/2/1 17/2/1
f 21/2/1 20/2/1 19/2/1
f 22/2/1 20/2/1 21/2/1
f 23/2/1 16/2/1 15/2/1
f 24/2/1 16/2/1 23/2/1
f 28/1/1 26/1/1 25/1/1
f 29/2/1 27/2/1 26/2/1
f 29/1/1 26/1/1 28/1/1
f 30/2/1 27/2/1 29/2/1
f 35/2/1 32/2/1 31/2/1
f 36/2/1 32/2/1 35/2/1
f 37/2/1 34/2/1 33/2/1
f 38/2/1 34/2/1 37/2/1
f 43/2/1 40/2/1 39/2/1
f 44/2/1 40/2/1 43/2/1
f 45/2/1 42/2/1 41/2/1
f 46/2/1 42/2/1 45/2/1
f 49/2/1 48/2/1 47/2/1
f 50/2/1 48/2/1 49/2/1
f 53/2/1 52/2/1 51/2/1
f 54/2/1 52/2/1 53/2/1
f 57/2/1 56/2/1 55/2/1
f 58/2/1 56/2/1 57/2/1
f 61/2/1 60/2/1 59/2/1
f 62/2/1 60/2/1 61/2/1
f 65/2/1 64/2/1 63/2/1
f 66/2/1 64/2/1 65/2/1
f 69/2/1 68/2/1 67/2/1
f 70/2/1 68/2/1 69/2/1
f 73/2/1 72/2/1 71/2/1
f 74/2/1 72/2/1 73/2/1
f 75/2/2 76/2/2 77/2/2
f 77/2/2 76/2/2 78/2/2
f 79/2/2 80/2/2 81/2/2
f 81/2/2 80/2/2 82/2/2
f 83/2/2 84/2/2 85/2/2
f 85/2/2 84/2/2 86/2/2
f 87/2/2 88/2/2 89/2/2
f 89/2/2 88/2/2 90/2/2
f 91/2/2 92/2/2 93/2/2
f 93/2/2 92/2/2 94/2/2
f 95/2/2 96/2/2 99/2/2
f 99/2/2 96/2/2 100/2/2
f 97/2/2 98/2/2 101/2/2
f 101/2/2 98/2/2 102/2/2
f 103/2/2 104/2/2 107/2/2
f 107/2/2 104/2/2 108/2/2
f 105/2/2 106/2/2 109/2/2
f 109/2/2 106/2/2 110/2/2
f 111/1/2 112/1/2 114/1/2
f 112/2/2 113/2/2 115/2/2
f 114/1/2 112/1/2 115/1/2
f 115/2/2 113/2/2 116/2/2
f 117/2/2 118/2/2 121/2/2
f 121/2/2 118/2/2 122/2/2
f 123/2/2 124/2/2 125/2/2
f 125/2/2 124/2/2 126/2/2
f 119/2/2 120/2/2 127/2/2
f 127/2/2 120/2/2 128/2/2
f 129/1/2 130/1/2 132/1/2
f 130/2/2 131/2/2 133/2/2
f 132/1/2 130/1/2 133/1/2
f 133/2/2 131/2/2 134/2/2
f 135/1/2 136/1/2 138/1/2
f 136/2/2 137/2/2 139/2/2
f 138/1/2 136/1/2 139/1/2
f 139/2/2 137/2/2 140/2/2
f 146/2/3 142/2/3 141/2/3
f 147/2/3 142/2/3 146/2/3
f 148/2/3 142/2/3 147/2/3
f 149/2/3 144/2/3 143/2/3
f 152/2/3 150/2/3 149/2/3
f 152/2/3 149/2/3 143/2/3
f 153/2/3 147/2/3 146/2/3
f 153/2/3 146/2/3 145/2/3
f 154/2/3 147/2/3 153/2/3
f 156/2/3 152/2/3 151/2/3
f 157/2/3 153/2/3 145/2/3
f 158/2/3 153/2/3 157/2/3
f 161/2/3 156/2/3 155/2/3
f 162/2/3 150/2/3 152/2/3
f 162/2/3 156/2/3 161/2/3
f 162/2/3 152/2/3 156/2/3
f 163/2/3 160/2/3 159/2/3
f 165/2/3 150/2/3 162/2/3
f 166/2/3 150/2/3 165/2/3
f 167/2/3 164/2/3 163/2/3
f 172/2/3 170/2/3 169/2/3
f 173/2/3 163/2/3 159/2/3
f 173/2/3 167/2/3 163/2/3
f 173/2/3 168/2/3 167/2/3
f 174/2/3 168/2/3 173/2/3
f 175/2/3 172/2/3 171/2/3
f 175/2/3 170/2/3 172/2/3
f 176/2/3 170/2/3 175/2/3
f 177/2/3 168/2/3 174/2/3
f 178/2/3 168/2/3 177/2/3
f 179/2/3 175/2/3 171/2/3
f 180/2/3 175/2/3 179/2/3
f 184/1/3 182/1/3 181/1/3
f 185/1/3 182/1/3 184/1/3
f 186/1/3 182/1/3 185/1/3
f 187/1/3 182/1/3 186/1/3
f 188/1/3 182/1/3 187/1/3
f 189/1/3 182/1/3 188/1/3
f 191/1/3 184/1/3 183/1/3
f 191/1/3 185/1/3 184/1/3
f 192/1/3 185/1/3 191/1/3
f 194/1/3 187/1/3 186/1/3
f 195/1/3 190/1/3 189/1/3
f 195/1/3 189/1/3 188/1/3
f 196/1/3 190/1/3 195/1/3
f 197/1/3 194/1/3 193/1/3
f 197/1/3 187/1/3 194/1/3
f 198/1/3 187/1/3 197/1/3
f 200/1/3 197/1/3 193/1/3
f 201/1/3 197/1/3 200/1/3
f 201/1/3 200/1/3 199/1/3
f 202/1/3 197/1/3 201/1/3
f 203/1/3 191/1/3 183/1/3
f 204/1/3 201/1/3 199/1/3
f 205/1/3 203/1/3 183/1/3
f 205/1/3 204/1/3 203/1/3
f 206/1/3 201/1/3 204/1/3
f 206/1/3 204/1/3 205/1/3
f 207/1/3 201/1/3 206/1/3
f 209/1/3 207/1/3 206/1/3
f 209/1/3 208/1/3 207/1/3
f 210/1/3 208/1/3 209/1/3
f 211/1/3 208/1/3 210/1/3
f 212/1/3 190/1/3 196/1/3
f 213/1/3 211/1/3 210/1/3
f 213/1/3 212/1/3 211/1/3
f 214/1/3 212/1/3 213/1/3
f 215/1/3 212/1/3 214/1/3
f 216/1/3 190/1/3 212/1/3
f 216/1/3 212/1/3 215/1/3
f 217/1/3 215/1/3 214/1/3
f 218/1/3 215/1/3 217/1/3
f 219/1/3 205/1/3 183/1/3
f 222/1/3 190/1/3 216/1/3
f 223/1/3 219/1/3 183/1/3
f 223/1/3 220/1/3 219/1/3
f 224/1/3 220/1/3 223/1/3
f 225/1/3 220/1/3 224/1/3
f 226/1/3 217/1/3 214/1/3
f 227/1/3 217/1/3 226/1/3
f 228/1/3 222/1/3 221/1/3
f 229/1/3 190/1/3 222/1/3
f 229/1/3 222/1/3 228/1/3
f 230/1/3 190/1/3 229/1/3
f 231/1/3 227/1/3 226/1/3
f 231/1/3 228/1/3 227/1/3
f 231/1/3 229/1/3 228/1/3
f 231/1/3 225/1/3 224/1/3
f 231/1/3 226/1/3 225/1/3
f 232/1/3 229/1/3 231/1/3
f 233/2/4 234/2/4 236/2/4
f 236/2/4 234/2/4 237/2/4
f 237/2/4 234/2/4 238/2/4
f 238/2/4 234/2/4 239/2/4
f 235/2/4 236/2/4 241/2/4
f 236/2/4 237/2/4 241/2/4
f 241/2/4 237/2/4 242/2/4
f 239/2/4 240/2/4 243/2/4
f 238/2/4 239/2/4 243/2/4
f 243/2/4 240/2/4 244/2/4
f 235/2/4 241/2/4 245/2/4
f 244/2/4 240/2/4 248/2/4
f 245/2/4 246/2/4 249/2/4
f 235/2/4 245/2/4 249/2/4
f 249/2/4 246/2/4 250/2/4
f 250/2/4 246/2/4 251/2/4
f 247/2/4 248/2/4 252/2/4
f 248/2/4 240/2/4 253/2/4
f 252/2/4 248/2/4 253/2/4
f 253/2/4 240/2/4 254/2/4
f 250/2/4 251/2/4 255/2/4
f 251/2/4 252/2/4 255/2/4
f 252/2/4 253/2/4 255/2/4
f 255/2/4 253/2/4 256/2/4
f 257/2/4 258/2/4 260/2/4
f 260/2/4 258/2/4 261/2/4
f 259/2/4 260/2/4 263/2/4
f 261/2/4 262/2/4 263/2/4
f 260/2/4 261/2/4 263/2/4
f 263/2/4 262/2/4 264/2/4
f 264/2/4 262/2/4 265/2/4
f 265/2/4 262/2/4 266/2/4
f 264/2/4 265/2/4 267/2/4
f 267/2/4 265/2/4 268/2/4
f 271/1/5 270/1/5 269/1/5
f 272/1/5 270/1/5 271/1/5
f 273/2/5 272/2/5 271/2/5
f 274/2/5 272/2/5 273/2/5
f 281/2/5 276/2/5 275/2/5
f 282/2/5 276/2/5 281/2/5
f 283/2/5 278/2/5 277/2/5
f 284/2/5 278/2/5 283/2/5
f 287/1/5 280/1/5 279/1/5
f 288/1/5 280/1/5 287/1/5
f 289/1/5 286/1/5 285/1/5
f 290/1/5 286/1/5 289/1/5
f 291/2/5 288/2/5 287/2/5
f 292/2/5 288/2/5 291/2/5
f 295/2/5 290/2/5 289/2/5
f 296/2/5 290/2/5 295/2/5
f 297/2/5 294/2/5 293/2/5
f 298/2/5 294/2/5 297/2/5
f 303/2/5 300/2/5 299/2/5
f 304/2/5 300/2/5 303/2/5
f 305/2/5 302/2/5 301/2/5
f 306/2/5 302/2/5 305/2/5
f 311/2/5 308/2/5 307/2/5
f 312/2/5 308/2/5 311/2/5
f 313/2/5 310/2/5 309/2/5
f 314/2/5 310/2/5 313/2/5
f 317/2/5 316/2/5 315/2/5
f 318/2/5 316/2/5 317/2/5
f 321/2/5 320/2/5 319/2/5
f 322/2/5 320/2/5 321/2/5
f 327/2/5 324/2/5 323/2/5
f 328/2/5 324/2/5 327/2/5
f 329/2/5 326/2/5 325/2/5
f 330/2/5 326/2/5 329/2/5
f 333/2/5 332/2/5 331/2/5
f 334/2/5 332/2/5 333/2/5
f 337/2/5 336/2/5 335/2/5
f 338/2/5 336/2/5 337/2/5
f 339/2/6 340/2/6 343/2/6
f 343/2/6 340/2/6 344/2/6
f 341/2/6 342/2/6 345/2/6
f 345/2/6 342/2/6 346/2/6
f 347/2/6 348/2/6 349/2/6
f 349/2/6 348/2/6 350/2/6
f 351/2/6 352/2/6 355/2/6
f 355/2/6 352/2/6 356/2/6
f 353/2/6 354/2/6 357/2/6
f 357/2/6 354/2/6 358/2/6
f 359/2/6 360/2/6 361/2/6
f 361/2/6 360/2/6 362/2/6
f 363/2/6 364/2/6 367/2/6
f 367/2/6 364/2/6 368/2/6
f 365/2/6 366/2/6 369/2/6
f 369/2/6 366/2/6 370/2/6
f 371/2/6 372/2/6 375/2/6
f 375/2/6 372/2/6 376/2/6
f 373/2/6 374/2/6 377/2/6
f 377/2/6 374/2/6 378/2/6
f 379/2/6 380/2/6 385/2/6
f 385/2/6 380/2/6 386/2/6
f 381/2/6 382/2/6 387/2/6
f 387/2/6 382/2/6 388/2/6
f 383/1/6 384/1/6 391/1/6
f 391/1/6 384/1/6 392/1/6
f 389/1/6 390/1/6 393/1/6
f 393/1/6 390/1/6 394/1/6
f 391/2/6 392/2/6 395/2/6
f 395/2/6 392/2/6 396/2/6
f 393/2/6 394/2/6 399/2/6
f 399/2/6 394/2/6 400/2/6
f 397/2/6 398/2/6 401/2/6
f 401/2/6 398/2/6 402/2/6
f 403/1/6 404/1/6 405/1/6
f 405/1/6 404/1/6 406/1/6
f 405/2/6 406/2/6 407/2/6
f 407/2/6 406/2/6 408/2/6
